<?xml version="1.0" standalone="no"?><!DOCTYPE svg PUBLIC "-//W3C//DTD SVG 1.1//EN" "http://www.w3.org/Graphics/SVG/1.1/DTD/svg11.dtd"><svg t="1711914844085" class="icon" viewBox="0 0 1024 1024" version="1.1" xmlns="http://www.w3.org/2000/svg" p-id="18990" xmlns:xlink="http://www.w3.org/1999/xlink" width="200" height="200"><path d="M911.36 961.792c-10.496 0-20.992-4.096-28.928-11.52l-112.384-108.288s-0.256-0.256-0.512-0.256H413.44c-23.296 0-41.984-18.944-41.984-41.984v-61.952c0-31.232 25.344-56.576 56.576-56.576h244.736c67.584 0 122.112-54.784 122.112-122.112V430.08c0-31.232 25.344-56.576 56.576-56.576h59.392c23.296 0 41.984 18.944 41.984 41.984v503.296c0 15.104-7.424 29.44-20.48 37.12-6.656 3.84-13.824 5.888-20.992 5.888z m-481.024-190.72c0 9.472 1.792 11.264 11.264 11.264h329.472c14.336 0 28.16 5.632 38.656 15.616l74.24 71.168c5.12 5.12 9.472 5.632 9.472-1.792V443.904c0-8.192-2.048-11.264-11.264-11.264H865.28c-8.96 0-11.264 3.072-11.264 11.264v114.688c0 100.096-81.152 181.248-181.248 181.248h-230.912c-6.144 0-11.264 5.12-11.264 11.264v19.968zM911.36 432.64z" p-id="18991" fill="#1D80A7"></path><path d="M82.432 769.024c-3.84 0-7.68-0.768-11.264-2.304-11.008-4.608-18.176-15.36-18.176-27.392v-563.2c0-48.384 39.168-87.552 87.552-87.552h505.6c48.128 0 87.296 39.168 87.296 87.552V532.48c0 48.384-39.168 87.552-87.552 87.552H243.456L103.168 760.32c-5.632 5.632-13.056 8.704-20.736 8.704zM140.288 147.712c-15.616 0-28.416 12.8-28.416 28.416v491.776l90.112-90.112c10.752-10.752 25.856-17.152 41.472-17.152h402.176c15.616 0 28.416-12.8 28.416-28.416V176.128c0-15.616-12.544-28.416-28.16-28.416H140.288z" p-id="18992" fill="#1D80A7"></path><path d="M455.168 257.536c0-14.848 12.288-26.88 27.392-26.112 14.336 0.512 25.088 13.568 25.088 27.904V309.76c0 14.592-11.776 26.112-26.112 26.112-14.592 0-26.112-11.776-26.112-26.112l-0.256-52.224zM285.184 257.536c0-17.152 16.64-30.208 34.304-24.832 11.008 3.584 17.92 14.336 17.92 25.856v51.2c0 14.592-11.776 26.112-26.112 26.112-14.592 0-26.112-11.776-26.112-26.112v-52.224zM559.616 385.792c0 21.76-8.704 42.752-25.088 57.344-34.56 30.464-83.712 49.664-138.24 49.664s-103.68-18.944-137.984-49.664c-16.384-14.592-25.088-35.584-25.088-57.344v-21.76c0-0.256 0.256-0.256 0.512 0 33.024 45.824 93.44 76.8 162.816 76.8 69.12 0 129.792-30.72 162.816-76.8 0.256-0.256 0.512 0 0.512 0.256l-0.256 21.504z" p-id="18993" fill="#1D80A7"></path></svg>