<?xml version="1.0" standalone="no"?><!DOCTYPE svg PUBLIC "-//W3C//DTD SVG 1.1//EN" "http://www.w3.org/Graphics/SVG/1.1/DTD/svg11.dtd"><svg t="1710693420794" class="icon" viewBox="0 0 1024 1024" version="1.1" xmlns="http://www.w3.org/2000/svg" p-id="3630" xmlns:xlink="http://www.w3.org/1999/xlink" width="200" height="200"><path d="M998.711589 405.337096l-55.453872 54.189451-151.549832-150.646675 55.453872-54.189451c16.79873-16.79873 43.351561-19.327571 57.802081-4.877051l99.889222 97.541013C1018.03916 361.985535 1015.510319 388.538367 998.711589 405.337096L998.711589 405.337096 998.711589 405.337096 998.711589 405.337096 998.711589 405.337096 998.711589 405.337096zM765.155054 334.348915l152.814253 149.382254L554.719351 842.826601c-1.264421 1.264421-5.96084 5.96084-13.1861 7.22526-1.264421 0-1.264421 0-2.34821 1.264421l-190.204974 59.066502c-4.877051 1.264421-10.83789 1.264421-14.45052-2.34821-3.61263-3.61263-4.877051-8.489681-2.34821-14.45052l60.150291-186.772976c0-1.264421 0-1.264421 1.264421-2.34821 1.264421-5.96084 5.96084-13.1861 8.489681-14.45052l69.723761-63.762921L240.601164 626.249427c-9.57347 0-18.06315-10.83789-18.06315-19.327571 0-9.754101 8.489681-20.41136 18.06315-20.41136l267.153995 0L765.155054 334.348915 765.155054 334.348915 765.155054 334.348915 765.155054 334.348915 765.155054 334.348915zM507.75516 830.72429l-93.928382-92.844593-25.288411 78.394073 39.738931 39.738931L507.75516 830.72429 507.75516 830.72429 507.75516 830.72429 507.75516 830.72429 507.75516 830.72429zM760.458635 393.415417c-4.877051-4.877051-14.45052-4.877051-19.327571 0L455.913918 672.852355c-5.96084 4.877051-5.96084 14.45052 0 19.327571 4.877051 4.877051 14.45052 4.877051 19.327571 0l283.952725-279.436938C765.155054 407.865938 765.155054 399.376257 760.458635 393.415417L760.458635 393.415417 760.458635 393.415417 760.458635 393.415417 760.458635 393.415417 760.458635 393.415417zM126.261422 939.103193c-9.57347 0-19.327571-3.61263-19.327571-13.1861L106.933851 164.374669c-1.264421-18.06315 10.83789-14.45052 24.02399-14.45052l66.111131 0 0 25.288411c0 9.57347 10.83789 18.06315 21.675781 18.06315 9.57347 0 21.675781-8.489681 21.675781-18.06315L240.420533 149.924149l98.624802 0 0 25.288411c0 9.57347 10.83789 18.06315 21.675781 18.06315 9.57347 0 21.675781-8.489681 21.675781-18.06315L382.396895 149.924149l90.315752 0 0 25.288411c0 9.57347 10.83789 18.06315 21.675781 18.06315 9.57347 0 21.675781-8.489681 21.675781-18.06315L516.064209 149.924149l90.315752 0 0 25.288411c0 9.57347 10.83789 18.06315 21.675781 18.06315 9.57347 0 21.675781-8.489681 21.675781-18.06315L649.731522 149.924149l75.865232 0c9.57347 0 15.714941 4.877051 15.714941 14.45052l0 125.358264 55.453872-54.189451L796.765567 164.374669c0-39.738931-30.165461-68.639972-70.988181-68.639972l-76.949021 0L648.828365 48.770506c0-9.57347-10.83789-18.06315-21.675781-18.06315-9.57347 0-21.675781 8.489681-21.675781 18.06315l0 46.964191-90.315752 0L515.161051 48.770506c0-9.57347-10.83789-18.06315-21.675781-18.06315-9.57347 0-21.675781 8.489681-21.675781 18.06315l0 46.964191-90.315752 0L381.493738 48.770506c0-9.57347-10.83789-18.06315-21.675781-18.06315-9.57347 0-21.675781 8.489681-21.675781 18.06315l0 46.964191-98.624802 0L239.517375 48.770506c0-9.57347-10.83789-18.06315-21.675781-18.06315-9.57347 0-21.675781 8.489681-21.675781 18.06315l0 46.964191-65.027342 0c-54.189451 0-80.561651 28.901041-80.561651 68.639972l0 760.278003c0 39.738931 36.126301 68.639972 76.949021 68.639972L724.332334 993.292644c40.82272 0 70.988181-28.901041 70.988181-68.639972L795.320515 662.014465l-55.453872 54.189451 0 209.713177c0 9.57347-5.96084 13.1861-15.714941 13.1861M599.154701 301.835244 239.336744 301.835244c-9.57347 0-16.79873 12.102311-16.79873 20.41136 0 9.57347 7.22526 20.41136 16.79873 20.41136l359.817957 0c9.57347 0 16.79873-12.102311 16.79873-20.41136C615.953431 313.756924 608.728171 301.835244 599.154701 301.835244L599.154701 301.835244 599.154701 301.835244 599.154701 301.835244 599.154701 301.835244 599.154701 301.835244zM599.154701 440.379608 239.336744 440.379608c-9.57347 0-16.79873 12.102311-16.79873 20.41136 0 9.57347 7.22526 20.41136 16.79873 20.41136l359.817957 0c9.57347 0 16.79873-12.102311 16.79873-20.41136C615.953431 452.481919 608.728171 440.379608 599.154701 440.379608L599.154701 440.379608 599.154701 440.379608 599.154701 440.379608 599.154701 440.379608 599.154701 440.379608zM599.154701 440.379608" p-id="3631" fill="#1d80a7"></path></svg>