<?xml version="1.0" standalone="no"?><!DOCTYPE svg PUBLIC "-//W3C//DTD SVG 1.1//EN" "http://www.w3.org/Graphics/SVG/1.1/DTD/svg11.dtd"><svg t="1710695768338" class="icon" viewBox="0 0 1024 1024" version="1.1" xmlns="http://www.w3.org/2000/svg" p-id="7900" xmlns:xlink="http://www.w3.org/1999/xlink" width="200" height="200"><path d="M722.8 423.1c-13.7 0-26.9 1.8-39.5 5.3-23-72.2-90.6-124.4-170.4-124.4-79.6 0-147 52-170.3 123.8-11.9-3.1-24.4-4.7-37.3-4.7-83 0-150.3 67.3-150.3 150.3 0 80.6 63.5 146.4 143.2 150.1 1.6 0.1 3.2 0.2 4.8 0.2h63.2v-61.9H334c-66.1-2.7-119.3-27-119.3-86.1 0-60.9 59.9-92.6 128.8-92.6 10.7 0 35.1 11.2 45 13.4C407.8 443.8 445.6 378 511.6 378c66.2 0 113.5 66.9 132.6 119.9 10.4-2.5 36.2-14.8 47.6-14.8 68.9 0 118.7 31.7 118.7 92.6 0 56.5-56.7 79.7-118.7 86.1h-32.2v61.9h70.2c3.7 0 7.2-0.4 10.7-1.1 74.7-8.7 132.6-72.2 132.6-149.2 0-83.1-67.3-150.3-150.3-150.3z" fill="#1d80a7" p-id="7901"></path><path d="M367.3 692.7m-31 0a31 31 0 1 0 62 0 31 31 0 1 0-62 0Z" fill="#1d80a7" p-id="7902"></path><path d="M660.1 692.7m-31 0a31 31 0 1 0 62 0 31 31 0 1 0-62 0Z" fill="#1d80a7" p-id="7903"></path><path d="M426.8 570.5l3.1 3.1c10.2 10.2 26.9 10.2 37.1 0l16.4-16.4v101.4c0 14.4 11.8 26.2 26.2 26.2h4.3c14.4 0 26.2-11.8 26.2-26.2V555l18.9 18.9c10.2 10.2 26.9 10.2 37.1 0l3.1-3.1c10.2-10.2 10.2-26.9 0-37.1l-64.5-64.5c-6.9-6.9-16.7-9.1-25.6-6.7-6.9-0.1-13.9 2.4-19.1 7.6l-63.3 63.3c-10.1 10.2-10.1 26.9 0.1 37.1z" fill="#1d80a7" p-id="7904"></path></svg>